<svg width="17" height="12" viewBox="0 0 17 12" fill="none" xmlns="http://www.w3.org/2000/svg">
<path d="M6.40421 3.24632C6.37053 3.01895 6.29474 2.81263 6.17684 2.62737C6.05895 2.43368 5.91158 2.26526 5.73474 2.12211C5.55789 1.97895 5.35579 1.86947 5.12842 1.79368C4.90947 1.70947 4.67789 1.66737 4.43368 1.66737C3.98737 1.66737 3.60842 1.75579 3.29684 1.93263C2.98526 2.10105 2.73263 2.33263 2.53895 2.62737C2.34526 2.91368 2.20211 3.2421 2.10947 3.61263C2.02526 3.98316 1.98316 4.36632 1.98316 4.76211C1.98316 5.14105 2.02526 5.51158 2.10947 5.87368C2.20211 6.22737 2.34526 6.54737 2.53895 6.83368C2.73263 7.12 2.98526 7.35158 3.29684 7.52842C3.60842 7.69684 3.98737 7.78105 4.43368 7.78105C5.04 7.78105 5.51158 7.59579 5.84842 7.22526C6.19369 6.85474 6.40421 6.36632 6.48 5.76H8.4C8.34947 6.32421 8.21895 6.83368 8.00842 7.28842C7.7979 7.74316 7.52 8.13053 7.17474 8.45053C6.82947 8.77053 6.42526 9.01474 5.96211 9.18316C5.49895 9.35158 4.98947 9.43579 4.43368 9.43579C3.74316 9.43579 3.12 9.3179 2.56421 9.08211C2.01684 8.8379 1.55368 8.50526 1.17474 8.08421C0.795789 7.66316 0.505263 7.17053 0.303158 6.60632C0.101053 6.03368 0 5.41895 0 4.76211C0 4.08842 0.101053 3.46526 0.303158 2.89263C0.505263 2.31158 0.795789 1.80632 1.17474 1.37684C1.55368 0.947368 2.01684 0.610526 2.56421 0.366316C3.12 0.122105 3.74316 0 4.43368 0C4.93053 0 5.39789 0.0715788 5.83579 0.214736C6.28211 0.357894 6.6779 0.568421 7.02316 0.846316C7.37684 1.11579 7.66737 1.45263 7.89474 1.85684C8.12211 2.26105 8.26526 2.72421 8.32421 3.24632H6.40421Z" fill="black"/>
<path d="M14.2385 10.0421C14.0448 10.5726 13.7753 10.9516 13.43 11.1789C13.0848 11.4063 12.6048 11.52 11.99 11.52C11.8048 11.52 11.6195 11.5116 11.4342 11.4947C11.2574 11.4863 11.0763 11.4737 10.8911 11.4568V9.97895C11.0595 9.99579 11.2321 10.0126 11.409 10.0295C11.5858 10.0463 11.7627 10.0505 11.9395 10.0421C12.1753 10.0168 12.3479 9.92421 12.4574 9.76421C12.5753 9.60421 12.6342 9.42737 12.6342 9.23368C12.6342 9.09053 12.609 8.95579 12.5585 8.82947L10.2721 2.70316H12.1795L13.6574 7.17474H13.6827L15.11 2.70316H16.9669L14.2385 10.0421Z" fill="black"/>
</svg>
